<svg width="15" height="11" viewBox="0 0 15 11" fill="none" xmlns="http://www.w3.org/2000/svg">
<path d="M10.534 10.5052C10.1431 10.9291 9.43151 11.2152 9.02057 10.7913C8.82964 10.4747 8.72821 10.1071 8.72821 9.73162C8.72821 9.35616 8.82964 8.98851 9.02057 8.67193L11.0251 6.55256H1.00229C0.736463 6.55256 0.481528 6.44091 0.293563 6.24218C0.105598 6.04345 0 5.77391 0 5.49287C0 5.21182 0.105598 4.94229 0.293563 4.74356C0.481528 4.54483 0.736463 4.43318 1.00229 4.43318H11.0251L9.02057 2.31381C8.82964 1.99723 8.72821 1.62958 8.72821 1.25412C8.72821 0.878659 8.82964 0.51101 9.02057 0.194431C9.43151 -0.229444 10.1431 0.109656 10.534 0.544128L14.7035 4.78288C14.7975 4.88139 14.872 4.99859 14.9229 5.12772C14.9738 5.25686 15 5.39536 15 5.53526C15 5.67515 14.9738 5.81365 14.9229 5.94279C14.872 6.07192 14.7975 6.18912 14.7035 6.28763L10.534 10.5052Z" fill="white"/>
</svg>
