<svg width="28" height="22" viewBox="0 0 28 22" fill="none" xmlns="http://www.w3.org/2000/svg">
<path d="M10.4462 17.7745H2.46987C1.89096 17.7745 1.41973 17.3097 1.41973 16.7387V3.0917C1.41973 2.52066 1.89096 2.05584 2.46987 2.05584H25.2414C25.8203 2.05584 26.2915 2.52066 26.2915 3.0917V16.7381C26.2915 17.3092 25.8203 17.774 25.2414 17.774H23.6342C23.3383 17.774 23.099 18.0101 23.099 18.3019C23.099 18.5938 23.3383 18.8298 23.6342 18.8298H25.2414C26.4109 18.8298 27.3619 17.8913 27.3619 16.7381V3.0917C27.3619 1.93858 26.4104 1 25.2414 1H2.46987C1.30086 1 0.349335 1.93858 0.349335 3.0917V16.7381C0.349335 17.8918 1.30086 18.8298 2.46987 18.8298H10.4462C10.7416 18.8298 10.9814 18.5938 10.9814 18.3019C10.9814 18.0106 10.7416 17.7745 10.4462 17.7745Z" fill="white"/>
<path d="M21.7452 13.7314C21.7314 13.315 21.467 12.9527 21.0714 12.8076L12.2199 9.56854C11.6207 9.34927 10.9672 9.49019 10.5151 9.93556C10.0631 10.3815 9.92023 11.0256 10.1425 11.6171L13.4182 20.3336C13.5659 20.7259 13.9353 20.9872 14.3591 20.9988C14.3692 20.9993 14.3788 20.9993 14.3884 20.9993C14.8004 20.9993 15.1704 20.7611 15.3362 20.3867L16.2424 18.335L18.2067 20.2731C18.7659 20.8247 19.6759 20.8247 20.2351 20.2737L20.9925 19.5265C21.2633 19.2594 21.4126 18.9039 21.4126 18.5264C21.4126 18.1483 21.2633 17.7934 20.9925 17.5263L19.0532 15.6128L21.1333 14.6968C21.5181 14.5259 21.7586 14.1474 21.7452 13.7314ZM17.9066 14.9603C17.7456 15.0313 17.6305 15.1753 17.5985 15.3462C17.5665 15.5171 17.622 15.6927 17.7462 15.8153L20.2356 18.2713C20.3774 18.4112 20.3774 18.6389 20.2356 18.7788L19.4781 19.5259C19.4093 19.5938 19.3182 19.6311 19.2206 19.6311C19.1236 19.6311 19.0319 19.5938 18.9632 19.5259L16.4434 17.0399C16.3181 16.9163 16.1395 16.8622 15.9652 16.8942C15.7914 16.9268 15.6448 17.042 15.5745 17.2024L14.3905 19.8835L11.1463 11.2496C11.0333 10.9493 11.214 10.739 11.2721 10.6817C11.3169 10.6375 11.4533 10.5218 11.6532 10.5218C11.7129 10.5218 11.778 10.5324 11.8478 10.5576L20.6167 13.7667L17.9066 14.9603Z" fill="white"/>
<path d="M8.18225 6.88506C7.97328 6.67894 7.63425 6.67894 7.42529 6.88506C7.21633 7.09118 7.21633 7.4256 7.42529 7.63172L8.9376 9.12346C9.04208 9.22652 9.17908 9.27806 9.31608 9.27806C9.45308 9.27806 9.59007 9.22652 9.69455 9.12346C9.90352 8.91734 9.90352 8.58292 9.69455 8.3768L8.18225 6.88506Z" fill="white"/>
<path d="M8.74635 10.6451C8.74635 10.3538 8.50701 10.1172 8.21115 10.1172H6.07249C5.77718 10.1172 5.5373 10.3533 5.5373 10.6451C5.5373 10.9369 5.77664 11.173 6.07249 11.173H8.21115C8.50701 11.173 8.74635 10.9364 8.74635 10.6451Z" fill="white"/>
<path d="M10.7468 5.50644V7.61602C10.7468 7.90732 10.9861 8.14394 11.282 8.14394C11.5778 8.14394 11.8171 7.90785 11.8171 7.61602V5.50644C11.8171 5.21513 11.5778 4.97852 11.282 4.97852C10.9861 4.97852 10.7468 5.21513 10.7468 5.50644Z" fill="white"/>
<path d="M13.8847 8.35227C14.0217 8.35227 14.1587 8.30074 14.2632 8.19768L15.7755 6.70594C15.9845 6.49982 15.9845 6.1654 15.7755 5.95928C15.5665 5.75316 15.2275 5.75316 15.0186 5.95928L13.5062 7.45102C13.2973 7.65714 13.2973 7.99156 13.5062 8.19768C13.6107 8.30074 13.7477 8.35227 13.8847 8.35227Z" fill="white"/>
<path d="M8.31817 12.5687L6.80586 14.0604C6.5969 14.2665 6.5969 14.6009 6.80586 14.8071C6.91034 14.9101 7.04734 14.9616 7.18434 14.9616C7.32134 14.9616 7.45834 14.9101 7.56282 14.8071L9.07512 13.3153C9.28409 13.1092 9.28409 12.7748 9.07512 12.5687C8.86616 12.3625 8.52713 12.3625 8.31817 12.5687Z" fill="white"/>
<path d="M10.4462 17.7745H2.46987C1.89096 17.7745 1.41973 17.3097 1.41973 16.7387V3.0917C1.41973 2.52066 1.89096 2.05584 2.46987 2.05584H25.2414C25.8203 2.05584 26.2915 2.52066 26.2915 3.0917V16.7381C26.2915 17.3092 25.8203 17.774 25.2414 17.774H23.6342C23.3383 17.774 23.099 18.0101 23.099 18.3019C23.099 18.5938 23.3383 18.8298 23.6342 18.8298H25.2414C26.4109 18.8298 27.3619 17.8913 27.3619 16.7381V3.0917C27.3619 1.93858 26.4104 1 25.2414 1H2.46987C1.30086 1 0.349335 1.93858 0.349335 3.0917V16.7381C0.349335 17.8918 1.30086 18.8298 2.46987 18.8298H10.4462C10.7416 18.8298 10.9814 18.5938 10.9814 18.3019C10.9814 18.0106 10.7416 17.7745 10.4462 17.7745Z" stroke="white" stroke-width="0.7"/>
<path d="M21.7452 13.7314C21.7314 13.315 21.467 12.9527 21.0714 12.8076L12.2199 9.56854C11.6207 9.34927 10.9672 9.49019 10.5151 9.93556C10.0631 10.3815 9.92023 11.0256 10.1425 11.6171L13.4182 20.3336C13.5659 20.7259 13.9353 20.9872 14.3591 20.9988C14.3692 20.9993 14.3788 20.9993 14.3884 20.9993C14.8004 20.9993 15.1704 20.7611 15.3362 20.3867L16.2424 18.335L18.2067 20.2731C18.7659 20.8247 19.6759 20.8247 20.2351 20.2737L20.9925 19.5265C21.2633 19.2594 21.4126 18.9039 21.4126 18.5264C21.4126 18.1483 21.2633 17.7934 20.9925 17.5263L19.0532 15.6128L21.1333 14.6968C21.5181 14.5259 21.7586 14.1474 21.7452 13.7314ZM17.9066 14.9603C17.7456 15.0313 17.6305 15.1753 17.5985 15.3462C17.5665 15.5171 17.622 15.6927 17.7462 15.8153L20.2356 18.2713C20.3774 18.4112 20.3774 18.6389 20.2356 18.7788L19.4781 19.5259C19.4093 19.5938 19.3182 19.6311 19.2206 19.6311C19.1236 19.6311 19.0319 19.5938 18.9632 19.5259L16.4434 17.0399C16.3181 16.9163 16.1395 16.8622 15.9652 16.8942C15.7914 16.9268 15.6448 17.042 15.5745 17.2024L14.3905 19.8835L11.1463 11.2496C11.0333 10.9493 11.214 10.739 11.2721 10.6817C11.3169 10.6375 11.4533 10.5218 11.6532 10.5218C11.7129 10.5218 11.778 10.5324 11.8478 10.5576L20.6167 13.7667L17.9066 14.9603Z" stroke="white" stroke-width="0.7"/>
<path d="M8.18225 6.88506C7.97328 6.67894 7.63425 6.67894 7.42529 6.88506C7.21633 7.09118 7.21633 7.4256 7.42529 7.63172L8.9376 9.12346C9.04208 9.22652 9.17908 9.27806 9.31608 9.27806C9.45308 9.27806 9.59007 9.22652 9.69455 9.12346C9.90352 8.91734 9.90352 8.58292 9.69455 8.3768L8.18225 6.88506Z" stroke="white" stroke-width="0.7"/>
<path d="M8.74635 10.6451C8.74635 10.3538 8.50701 10.1172 8.21115 10.1172H6.07249C5.77718 10.1172 5.5373 10.3533 5.5373 10.6451C5.5373 10.9369 5.77664 11.173 6.07249 11.173H8.21115C8.50701 11.173 8.74635 10.9364 8.74635 10.6451Z" stroke="white" stroke-width="0.7"/>
<path d="M10.7468 5.50644V7.61602C10.7468 7.90732 10.9861 8.14394 11.282 8.14394C11.5778 8.14394 11.8171 7.90785 11.8171 7.61602V5.50644C11.8171 5.21513 11.5778 4.97852 11.282 4.97852C10.9861 4.97852 10.7468 5.21513 10.7468 5.50644Z" stroke="white" stroke-width="0.7"/>
<path d="M13.8847 8.35227C14.0217 8.35227 14.1587 8.30074 14.2632 8.19768L15.7755 6.70594C15.9845 6.49982 15.9845 6.1654 15.7755 5.95928C15.5665 5.75316 15.2275 5.75316 15.0186 5.95928L13.5062 7.45102C13.2973 7.65714 13.2973 7.99156 13.5062 8.19768C13.6107 8.30074 13.7477 8.35227 13.8847 8.35227Z" stroke="white" stroke-width="0.7"/>
<path d="M8.31817 12.5687L6.80586 14.0604C6.5969 14.2665 6.5969 14.6009 6.80586 14.8071C6.91034 14.9101 7.04734 14.9616 7.18434 14.9616C7.32134 14.9616 7.45834 14.9101 7.56282 14.8071L9.07512 13.3153C9.28409 13.1092 9.28409 12.7748 9.07512 12.5687C8.86616 12.3625 8.52713 12.3625 8.31817 12.5687Z" stroke="white" stroke-width="0.7"/>
</svg>
