<svg width="21" height="22" viewBox="0 0 21 22" fill="none" xmlns="http://www.w3.org/2000/svg">
<path d="M19.8344 5.05386L10.5017 1.05375C10.3338 0.982083 10.1437 0.982083 9.97589 1.05375L0.643208 5.05386C0.400873 5.16498 0.241354 5.40109 0.229126 5.66666V16.3336C0.229126 16.6003 0.388089 16.8414 0.633203 16.9464L9.97088 20.9465C10.1376 21.0182 10.3272 21.0182 10.4945 20.9465L19.8321 16.9464C20.0784 16.842 20.2379 16.6009 20.2384 16.3336V5.66666C20.2351 5.40054 20.0778 5.16109 19.8344 5.05386ZM9.56681 19.3231L1.56308 15.8942V6.67724L9.56681 10.1062V19.3231ZM10.2338 8.94175L2.58967 5.66666L10.2338 2.39157L17.8779 5.66666L10.2338 8.94175ZM18.9045 15.8942L10.9008 19.3226V10.1057L18.9045 6.67669V15.8942Z" fill="white" stroke="white" stroke-width="0.2"/>
</svg>
