<svg width="21" height="22" viewBox="0 0 21 22" fill="none" xmlns="http://www.w3.org/2000/svg">
<path d="M18.373 21H13.8375C12.6036 21 11.6032 20 11.6032 18.7667V12.6667C11.6032 12.3 11.9033 12 12.2701 12H18.373C19.6069 12 20.6074 13 20.6074 14.2333V18.7667C20.6074 20 19.6069 21 18.373 21ZM12.9371 13.3333V18.7667C12.9371 19.2667 13.3373 19.6667 13.8375 19.6667H18.373C18.8732 19.6667 19.2734 19.2667 19.2734 18.7667V14.2333C19.2734 13.7333 18.8732 13.3333 18.373 13.3333H12.9371Z" fill="white" stroke="white" stroke-width="0.3"/>
<path d="M7.36787 21H2.83243C1.59852 21 0.598053 20 0.598053 18.7667V14.2333C0.598053 13 1.59852 12 2.83243 12H8.93527C9.30211 12 9.60225 12.3 9.60225 12.6667V18.7667C9.60225 20 8.60178 21 7.36787 21ZM2.83243 13.3333C2.33219 13.3333 1.93201 13.7333 1.93201 14.2333V18.7667C1.93201 19.2667 2.33219 19.6667 2.83243 19.6667H7.36787C7.86811 19.6667 8.26829 19.2667 8.26829 18.7667V13.3333H2.83243Z" fill="white" stroke="white" stroke-width="0.3"/>
<path d="M18.373 10H12.2701C11.9033 10 11.6032 9.7 11.6032 9.33333V3.23333C11.6032 2 12.6036 1 13.8375 1H18.373C19.6069 1 20.6074 2 20.6074 3.23333V7.76667C20.6074 9 19.6069 10 18.373 10ZM12.9371 8.66667H18.373C18.8732 8.66667 19.2734 8.26667 19.2734 7.76667V3.23333C19.2734 2.73333 18.8732 2.33333 18.373 2.33333H13.8375C13.3373 2.33333 12.9371 2.73333 12.9371 3.23333V8.66667Z" fill="white" stroke="white" stroke-width="0.3"/>
<path d="M8.93527 10H2.83243C1.59852 10 0.598053 9 0.598053 7.76667V3.23333C0.598053 2 1.59852 1 2.83243 1H7.36787C8.60178 1 9.60225 2 9.60225 3.23333V9.33333C9.60225 9.7 9.30211 10 8.93527 10ZM2.83243 2.33333C2.33219 2.33333 1.93201 2.73333 1.93201 3.23333V7.76667C1.93201 8.26667 2.33219 8.66667 2.83243 8.66667H8.26829V3.23333C8.26829 2.73333 7.86811 2.33333 7.36787 2.33333H2.83243Z" fill="white" stroke="white" stroke-width="0.3"/>
</svg>
