<svg width="21" height="12" viewBox="0 0 21 12" fill="none" xmlns="http://www.w3.org/2000/svg">
<g clip-path="url(#clip0_1_327)">
<path d="M14.8287 0C13.1881 0 11.9055 1.11521 10.7444 2.53198C10.7385 2.52528 10.7326 2.51893 10.7268 2.51223C10.6889 2.46885 10.6513 2.42652 10.6138 2.3842C10.6041 2.37327 10.5943 2.36233 10.5845 2.3514C10.5404 2.30237 10.4966 2.25406 10.4532 2.2068C10.4466 2.19974 10.4403 2.19304 10.4337 2.18599C10.3954 2.14472 10.3575 2.10451 10.3196 2.06466C10.3094 2.05373 10.2992 2.04315 10.2887 2.03257C10.2453 1.98742 10.2019 1.94263 10.1589 1.89889C10.1554 1.89537 10.1519 1.89219 10.1488 1.88867C10.1089 1.84846 10.0694 1.80931 10.0296 1.77052C10.019 1.76029 10.0089 1.75006 9.99831 1.73983C9.91273 1.6566 9.82792 1.57689 9.74351 1.50071C9.73334 1.49154 9.72279 1.48201 9.71263 1.47284C9.67394 1.43828 9.63564 1.40407 9.59695 1.37091C9.59305 1.36774 9.58953 1.36421 9.58562 1.36104C9.5438 1.32506 9.50199 1.2898 9.46056 1.25558C9.4504 1.24747 9.44063 1.23901 9.43047 1.2309C9.39452 1.20162 9.35895 1.1727 9.323 1.14449C9.31635 1.1392 9.30971 1.13391 9.30307 1.12862C9.26203 1.09617 9.22061 1.06478 9.17957 1.03409C9.17019 1.02704 9.16081 1.02034 9.15182 1.01328C9.11704 0.987538 9.08265 0.962497 9.04826 0.937809C9.04005 0.931813 9.03185 0.925817 9.02364 0.920174C8.983 0.891253 8.94196 0.863391 8.90132 0.835881C8.89311 0.830238 8.8849 0.824947 8.8767 0.819657C8.84231 0.796732 8.80791 0.774512 8.77352 0.752645C8.76414 0.746649 8.75476 0.740654 8.74539 0.734658C8.70474 0.709264 8.6641 0.684223 8.62345 0.66024C8.61681 0.65636 8.61017 0.652481 8.60352 0.648601C8.56835 0.628145 8.53318 0.608041 8.49839 0.588643C8.48823 0.583 8.47846 0.577357 8.4683 0.572067C8.42766 0.549847 8.38702 0.52798 8.34598 0.507171C8.34207 0.505055 8.33816 0.503292 8.33426 0.501176C8.29713 0.48213 8.25961 0.46379 8.22249 0.446156C8.21232 0.441218 8.20177 0.43628 8.19161 0.431343C8.10954 0.392899 8.02786 0.357277 7.9454 0.324124C7.93485 0.319892 7.9243 0.31566 7.91414 0.31178C7.87701 0.29732 7.83988 0.283212 7.80276 0.269457C7.79846 0.268046 7.79416 0.266283 7.78986 0.264519C7.74883 0.249706 7.70779 0.235951 7.66676 0.222549C7.6566 0.219022 7.64605 0.215848 7.63588 0.212673C7.60071 0.201387 7.56554 0.190806 7.52998 0.180578C7.52294 0.178462 7.51591 0.176346 7.50848 0.17423C7.46745 0.162591 7.42641 0.151658 7.38499 0.141077C7.37522 0.138608 7.36505 0.136139 7.35528 0.13367C7.32089 0.125206 7.28611 0.117094 7.25172 0.109335C7.24273 0.107218 7.23374 0.105102 7.22476 0.103339C7.18333 0.0945215 7.1419 0.0860569 7.10009 0.0782977C7.0911 0.0765342 7.08211 0.0751234 7.07312 0.07336C7.03834 0.0670115 7.00317 0.0613684 6.96839 0.0560781C6.95822 0.0546673 6.94806 0.0529038 6.9379 0.0514931C6.8957 0.0451446 6.85349 0.0395015 6.81128 0.0345638C6.80386 0.0335058 6.79643 0.0328004 6.78901 0.032095C6.75266 0.0278627 6.71592 0.0243358 6.67958 0.0208088C6.66864 0.0197508 6.65769 0.0186927 6.64675 0.0179873C6.60376 0.0144604 6.56077 0.0112862 6.51779 0.00881731C6.5127 0.00846461 6.50802 0.00846461 6.50293 0.00811192C6.46385 0.00599577 6.42438 0.00423231 6.3853 0.00317423C6.37397 0.00282154 6.36224 0.00246885 6.35091 0.00211615C6.30636 0.000705384 6.2622 0 6.21765 0C2.96222 0 0.468094 3.82354 0.468094 7.87033C0.468094 10.4027 1.82576 12 4.09947 12C5.73617 12 6.91289 11.3038 9.00566 8.00294C9.00566 8.00294 9.87794 6.61298 10.4778 5.65542C10.4817 5.66071 10.4853 5.666 10.4892 5.67164C10.4982 5.68469 10.5075 5.6981 10.5165 5.7115C10.5388 5.74395 10.5611 5.77675 10.5837 5.8099C10.5943 5.82542 10.6048 5.84094 10.6154 5.85681C10.6388 5.89137 10.6627 5.92664 10.6865 5.96156C10.6947 5.9739 10.7029 5.98589 10.7111 5.99824C10.7432 6.0455 10.7752 6.09346 10.8077 6.14178C10.8139 6.15131 10.8206 6.16083 10.8268 6.17035C10.8534 6.20985 10.88 6.25006 10.9069 6.29027C10.9171 6.30543 10.9273 6.3206 10.9374 6.33576C10.9624 6.3735 10.9878 6.41159 11.0132 6.44968C11.0218 6.46308 11.0308 6.47613 11.0394 6.48954C11.0734 6.54103 11.1078 6.59323 11.1426 6.64578L11.2895 6.86903L12.1239 8.13555C14.0353 11.022 15.1003 12.0004 17.0301 12.0004C19.2452 12.0004 20.4782 10.3811 20.4782 7.79626C20.4774 3.55866 17.927 0 14.8287 0ZM7.41 7.10886C5.7135 9.50894 5.12651 10.0468 4.18193 10.0468C3.21 10.0468 2.63199 9.27651 2.63199 7.90348C2.63199 4.96555 4.25501 1.96132 6.1899 1.96132C6.21882 1.96132 6.24774 1.96203 6.27666 1.96273C6.28408 1.96309 6.2919 1.96308 6.29932 1.96344C6.32551 1.9645 6.35169 1.96555 6.37749 1.96732C6.38061 1.96767 6.38335 1.96767 6.38647 1.96767C6.415 1.96979 6.44314 1.97225 6.47128 1.97508C6.4787 1.97578 6.48574 1.97649 6.49316 1.97755C6.51739 1.98037 6.54162 1.98319 6.56585 1.98672C6.57054 1.98742 6.57523 1.98777 6.57992 1.98848C6.60767 1.99271 6.63581 1.9973 6.66356 2.00223C6.6702 2.00364 6.67723 2.0047 6.68388 2.00611C6.70733 2.0107 6.73038 2.01528 6.75383 2.02057C6.75969 2.02198 6.76517 2.02304 6.77103 2.02445C6.79878 2.0308 6.82613 2.0375 6.85388 2.04491C6.86013 2.04667 6.86599 2.04844 6.87225 2.04985C6.8953 2.0562 6.91836 2.0629 6.94142 2.06995C6.94767 2.07207 6.95393 2.07383 6.96057 2.07559C6.98832 2.08441 7.01567 2.09358 7.04342 2.10346C7.0485 2.10522 7.05397 2.10734 7.05905 2.1091C7.0825 2.11756 7.10595 2.12638 7.1294 2.1359C7.13604 2.13873 7.14308 2.14119 7.14972 2.14402C7.17747 2.1553 7.20522 2.16694 7.23296 2.17929C7.23687 2.18105 7.24078 2.18281 7.24469 2.18493C7.26931 2.19586 7.29354 2.2075 7.31816 2.21949C7.32519 2.22302 7.33223 2.22655 7.33965 2.23007C7.36779 2.24418 7.39593 2.25864 7.42407 2.27381C7.42602 2.27486 7.42758 2.27592 7.42954 2.27663C7.45611 2.29109 7.48269 2.30625 7.50965 2.32177C7.51708 2.32601 7.52411 2.33024 7.53154 2.33447C7.55929 2.35105 7.58703 2.36762 7.61478 2.38526C7.61556 2.38596 7.61634 2.38632 7.61712 2.38667C7.64565 2.40501 7.67457 2.42405 7.70349 2.44345C7.71053 2.44839 7.71795 2.45333 7.72499 2.45826C7.75078 2.4759 7.77657 2.49424 7.80276 2.51328C7.80628 2.51575 7.8094 2.51822 7.81292 2.52069C7.84184 2.54185 7.87115 2.56372 7.90046 2.58629C7.90749 2.59158 7.91453 2.59723 7.92156 2.60287C7.94697 2.62262 7.97198 2.64272 7.99777 2.66353C8.00285 2.66776 8.00793 2.67164 8.01301 2.67552C8.04271 2.69986 8.07242 2.7249 8.10212 2.75065C8.10915 2.75664 8.11579 2.76264 8.12283 2.76863C8.14823 2.7905 8.17363 2.81307 8.19904 2.836C8.20529 2.84164 8.21154 2.84728 8.2178 2.85293C8.24828 2.88044 8.27876 2.90865 8.30963 2.93793C8.31589 2.94357 8.32214 2.94957 8.328 2.95556C8.35419 2.9806 8.38037 3.006 8.40695 3.03174C8.41398 3.0388 8.42102 3.0455 8.42844 3.0529C8.45971 3.08394 8.49136 3.11568 8.52302 3.14848C8.5281 3.15377 8.53357 3.15942 8.53865 3.16471C8.5664 3.19328 8.59414 3.22255 8.62228 3.25218C8.6301 3.26029 8.63752 3.2684 8.64534 3.27686C8.67778 3.31178 8.7106 3.34705 8.74382 3.38373C8.74734 3.38726 8.75047 3.39114 8.75398 3.39502C8.78407 3.42852 8.81456 3.46273 8.84543 3.4973C8.85364 3.50682 8.86185 3.51599 8.87044 3.52551C8.90444 3.56431 8.93883 3.60381 8.97323 3.64437C8.97362 3.64472 8.97362 3.64507 8.97401 3.64507C9.0084 3.68528 9.04279 3.72655 9.07757 3.76816C9.08617 3.77874 9.09516 3.78897 9.10375 3.79955C9.13697 3.83976 9.17019 3.88032 9.20419 3.92194C9.20654 3.92476 9.20849 3.92723 9.21084 3.93005C9.24679 3.97449 9.28314 4.01999 9.31987 4.06619C9.32886 4.07747 9.33746 4.08876 9.34645 4.10005C9.37888 4.14131 9.41171 4.18293 9.44454 4.22525C9.44845 4.23019 9.45196 4.23478 9.45587 4.23971C8.18145 6.00317 7.41 7.10886 7.41 7.10886ZM17.0754 10.0468C16.109 10.0468 15.6474 9.47084 13.813 6.80661L12.6398 5.04068C12.5999 4.98248 12.5604 4.92464 12.5214 4.86751C12.2466 4.4679 11.9813 4.09723 11.7245 3.7537C12.782 2.28086 13.6539 1.54691 14.6915 1.54691C16.8464 1.54691 18.5707 4.41042 18.5707 7.92746C18.5699 9.26875 18.0833 10.0468 17.0754 10.0468Z" fill="white"/>
</g>
<defs>
<clipPath id="clip0_1_327">
<rect width="20.0093" height="12" fill="white" transform="translate(0.468094)"/>
</clipPath>
</defs>
</svg>
