<svg width="27" height="26" viewBox="0 0 27 26" fill="none" xmlns="http://www.w3.org/2000/svg">
<g clip-path="url(#clip0_1_267)">
<path d="M12.8949 9.17773C11.6267 9.17773 10.595 10.2055 10.595 11.469H12.1242C12.1242 11.0458 12.4701 10.7012 12.8949 10.7012H13.8069C14.2317 10.7012 14.5776 11.0458 14.5776 11.469C14.5776 11.8922 14.2317 12.2368 13.8069 12.2368H12.6488V13.7602H13.8069C14.2317 13.7602 14.5776 14.1049 14.5776 14.528C14.5776 14.9512 14.2317 15.2959 13.8069 15.2959H12.8949C12.4701 15.2959 12.1242 14.9512 12.1242 14.528H10.595C10.595 15.7915 11.6267 16.8193 12.8949 16.8193H13.8069C15.0751 16.8193 16.1067 15.7915 16.1067 14.528C16.1067 13.9403 15.8838 13.4041 15.5175 12.9985C15.8838 12.5923 16.1067 12.056 16.1067 11.469C16.1067 10.2055 15.0751 9.17773 13.8069 9.17773H12.8949Z" fill="white"/>
<path d="M26.4 12.2383H24.8389C24.8185 11.9234 24.7852 11.6106 24.739 11.3012L23.2269 11.5253C23.2622 11.7609 23.2887 11.9993 23.3071 12.2383H21.7582C21.3933 8.20693 18.1617 4.98807 14.116 4.62448V3.08208C14.3348 3.09833 14.5523 3.12203 14.7677 3.1525L14.9825 1.64396C14.6964 1.60333 14.4068 1.57422 14.116 1.55526V0H12.5868V1.55526C9.79906 1.73604 7.20361 2.90333 5.2103 4.88922C3.21699 6.8751 2.04533 9.46089 1.86388 12.2383H0.302803V13.7617H1.86388C2.04533 16.5391 3.21699 19.1249 5.2103 21.1108C7.20361 23.0967 9.79906 24.264 12.5868 24.4447V26H14.116V24.4447C16.9037 24.264 19.4992 23.0967 21.4925 21.1108C23.4858 19.1249 24.6575 16.5391 24.8389 13.7617H26.4V12.2383ZM20.2216 12.2383H18.7285V13.7617H20.2216C19.8675 16.9521 17.3176 19.4926 14.116 19.8446V18.3571H12.5868V19.8446C9.38449 19.4919 6.83458 16.9515 6.48118 13.7617H7.97429V12.2383H6.48118C6.83526 9.04786 9.38517 6.50745 12.5868 6.15537V7.64292H14.116V6.15537C17.3183 6.50745 19.8682 9.04786 20.2216 12.2383ZM12.5868 3.08208V4.62448C8.54041 4.98807 5.30952 8.20693 4.94457 12.2383H3.39641C3.76884 7.3599 7.68953 3.45313 12.5868 3.08208ZM3.39641 13.7617H4.94457C5.30952 17.7931 8.54109 21.0119 12.5868 21.3755V22.9179C7.68953 22.5469 3.76884 18.6401 3.39641 13.7617ZM14.116 22.9179V21.3755C18.1624 21.0119 21.3933 17.7924 21.7582 13.7617H23.3064C22.934 18.6401 19.0126 22.5469 14.116 22.9179Z" fill="white"/>
<path d="M23.0129 6.75898C22.7166 6.30466 22.3849 5.86727 22.0275 5.45898L20.8755 6.46107C21.1861 6.81518 21.4736 7.19503 21.7312 7.58909L23.0129 6.75898Z" fill="white"/>
<path d="M18.1169 2.55635C17.6208 2.33156 17.1043 2.13995 16.5817 1.98828L16.1528 3.45078C16.6055 3.58281 17.0533 3.74802 17.4829 3.94302L18.1169 2.55635Z" fill="white"/>
<path d="M22.9174 10.1471L24.3819 9.71034C24.2263 9.19102 24.0313 8.67779 23.8022 8.18555L22.4145 8.82539C22.6136 9.25263 22.7821 9.6968 22.9174 10.1471Z" fill="white"/>
<path d="M20.8675 4.31026C20.455 3.95615 20.0139 3.62844 19.5559 3.33594L18.7308 4.61901C19.1277 4.87224 19.511 5.15729 19.8685 5.46401L20.8675 4.31026Z" fill="white"/>
</g>
<defs>
<clipPath id="clip0_1_267">
<rect width="26.0972" height="26" fill="white" transform="translate(0.302803)"/>
</clipPath>
</defs>
</svg>
