<svg width="21" height="20" viewBox="0 0 21 20" fill="none" xmlns="http://www.w3.org/2000/svg">
<g clip-path="url(#clip0_1_308)">
<path d="M10.4206 0C4.87334 0 0.383179 4.47266 0.383179 10C0.383179 15.5266 4.87256 20 10.4206 20C15.9678 20 20.4579 15.5273 20.4579 10C20.4579 4.47344 15.9686 0 10.4206 0ZM10.4206 18.4375C5.73985 18.4375 1.95152 14.6637 1.95152 10C1.95152 5.33672 5.73946 1.5625 10.4206 1.5625C15.1013 1.5625 18.8896 5.33633 18.8896 10C18.8896 14.6633 15.1017 18.4375 10.4206 18.4375ZM13.5572 8.14453C13.5572 9.59805 12.5563 10.823 11.2047 11.1707V12.4414C11.2047 12.873 10.8538 13.2227 10.4206 13.2227C9.98731 13.2227 9.63639 12.873 9.63639 12.4414V10.4883C9.63639 10.0566 9.98731 9.70703 10.4206 9.70703C11.2855 9.70703 11.9889 9.00625 11.9889 8.14453C11.9889 7.28281 11.2855 6.58203 10.4206 6.58203C9.55562 6.58203 8.85222 7.28281 8.85222 8.14453C8.85222 8.57617 8.5013 8.92578 8.06805 8.92578C7.6348 8.92578 7.28388 8.57617 7.28388 8.14453C7.28388 6.42148 8.69107 5.01953 10.4206 5.01953C12.15 5.01953 13.5572 6.42148 13.5572 8.14453ZM11.4008 14.7852C11.4008 15.3246 10.962 15.7617 10.4206 15.7617C9.87909 15.7617 9.44035 15.3246 9.44035 14.7852C9.44035 14.2457 9.87909 13.8086 10.4206 13.8086C10.962 13.8086 11.4008 14.2457 11.4008 14.7852Z" fill="white"/>
</g>
<defs>
<clipPath id="clip0_1_308">
<rect width="20.0748" height="20" fill="white" transform="translate(0.383179)"/>
</clipPath>
</defs>
</svg>
