<svg width="25" height="24" viewBox="0 0 25 24" fill="none" xmlns="http://www.w3.org/2000/svg">
<path d="M20.3448 18.272C19.9425 18.1738 19.5366 18.4176 19.436 18.8196L18.9079 20.9495C18.8035 21.3445 18.3933 21.5807 17.9963 21.4755L2.5342 17.3369C2.13386 17.227 1.89516 16.8118 1.99994 16.4103L3.70093 9.89008C3.80572 9.489 3.56466 9.07899 3.16479 8.97519C2.76257 8.86811 2.3533 9.11092 2.24945 9.51107L0.548466 16.0299C0.236461 17.2218 0.947869 18.4561 2.14138 18.7849L17.6133 22.9263C17.8046 22.976 17.9977 23 18.1866 23C19.1841 23 20.0962 22.3331 20.3636 21.32L20.8936 19.1798C20.9923 18.7778 20.747 18.372 20.3448 18.272Z" fill="white"/>
<path d="M22.2346 1H6.727C5.48556 1 4.47577 2.00882 4.47577 3.25011V14.7501C4.47577 15.933 5.47887 17.0002 6.727 17.0002H22.2346C23.4761 17.0002 24.4859 15.9914 24.4859 14.7501V3.25011C24.4859 2.00882 23.4766 1 22.2346 1ZM6.727 2.50007H22.2346C22.6491 2.50007 22.9851 2.83588 22.9851 3.25011V11.1844L19.3232 6.91435C18.9882 6.52125 18.5376 6.26858 17.9817 6.29958C17.4644 6.30239 16.9771 6.53252 16.6449 6.93032L12.929 11.3883L11.7195 10.1794C11.0363 9.4951 9.92269 9.4951 9.23854 10.1794L5.97706 13.4393V3.25011C5.97659 2.83588 6.31303 2.50007 6.727 2.50007ZM22.2346 15.5001H6.727C6.53528 15.5001 6.36096 15.4273 6.22798 15.3089L10.2986 11.2413C10.4255 11.114 10.5307 11.114 10.6581 11.2413L12.4488 13.0311C12.5968 13.18 12.7989 13.2617 13.0131 13.25C13.2232 13.2411 13.4201 13.1429 13.5554 12.9809L17.7975 7.89076C17.8633 7.8128 17.9465 7.79965 17.9897 7.79965C18.0348 7.81374 18.1156 7.80951 18.1819 7.88888L22.9851 13.49V14.7496C22.9851 15.1638 22.6491 15.5001 22.2346 15.5001Z" fill="white"/>
<path d="M9.47865 8.00019C10.5824 8.00019 11.4794 7.10315 11.4794 5.99994C11.4794 4.89672 10.5824 3.99968 9.47865 3.99968C8.37536 3.99968 7.47741 4.89672 7.47741 5.99994C7.47741 7.10315 8.37489 8.00019 9.47865 8.00019ZM9.47865 5.49975C9.75494 5.49975 9.97908 5.72378 9.97908 5.99994C9.97908 6.27609 9.75494 6.50012 9.47865 6.50012C9.20236 6.50012 8.97822 6.27609 8.97822 5.99994C8.97822 5.72378 9.20236 5.49975 9.47865 5.49975Z" fill="white"/>
<path d="M20.3448 18.272C19.9425 18.1738 19.5366 18.4176 19.436 18.8196L18.9079 20.9495C18.8035 21.3445 18.3933 21.5807 17.9963 21.4755L2.5342 17.3369C2.13386 17.227 1.89516 16.8118 1.99994 16.4103L3.70093 9.89008C3.80572 9.489 3.56466 9.07899 3.16479 8.97519C2.76257 8.86811 2.3533 9.11092 2.24945 9.51107L0.548466 16.0299C0.236461 17.2218 0.947869 18.4561 2.14138 18.7849L17.6133 22.9263C17.8046 22.976 17.9977 23 18.1866 23C19.1841 23 20.0962 22.3331 20.3636 21.32L20.8936 19.1798C20.9923 18.7778 20.747 18.372 20.3448 18.272Z" stroke="white" stroke-width="0.2"/>
<path d="M22.2346 1H6.727C5.48556 1 4.47577 2.00882 4.47577 3.25011V14.7501C4.47577 15.933 5.47887 17.0002 6.727 17.0002H22.2346C23.4761 17.0002 24.4859 15.9914 24.4859 14.7501V3.25011C24.4859 2.00882 23.4766 1 22.2346 1ZM6.727 2.50007H22.2346C22.6491 2.50007 22.9851 2.83588 22.9851 3.25011V11.1844L19.3232 6.91435C18.9882 6.52125 18.5376 6.26858 17.9817 6.29958C17.4644 6.30239 16.9771 6.53252 16.6449 6.93032L12.929 11.3883L11.7195 10.1794C11.0363 9.4951 9.92269 9.4951 9.23854 10.1794L5.97706 13.4393V3.25011C5.97659 2.83588 6.31303 2.50007 6.727 2.50007ZM22.2346 15.5001H6.727C6.53528 15.5001 6.36096 15.4273 6.22798 15.3089L10.2986 11.2413C10.4255 11.114 10.5307 11.114 10.6581 11.2413L12.4488 13.0311C12.5968 13.18 12.7989 13.2617 13.0131 13.25C13.2232 13.2411 13.4201 13.1429 13.5554 12.9809L17.7975 7.89076C17.8633 7.8128 17.9465 7.79965 17.9897 7.79965C18.0348 7.81374 18.1156 7.80951 18.1819 7.88888L22.9851 13.49V14.7496C22.9851 15.1638 22.6491 15.5001 22.2346 15.5001Z" stroke="white" stroke-width="0.2"/>
<path d="M9.47865 8.00019C10.5824 8.00019 11.4794 7.10315 11.4794 5.99994C11.4794 4.89672 10.5824 3.99968 9.47865 3.99968C8.37536 3.99968 7.47741 4.89672 7.47741 5.99994C7.47741 7.10315 8.37489 8.00019 9.47865 8.00019ZM9.47865 5.49975C9.75494 5.49975 9.97908 5.72378 9.97908 5.99994C9.97908 6.27609 9.75494 6.50012 9.47865 6.50012C9.20236 6.50012 8.97822 6.27609 8.97822 5.99994C8.97822 5.72378 9.20236 5.49975 9.47865 5.49975Z" stroke="white" stroke-width="0.2"/>
</svg>
