<svg width="25" height="17" viewBox="0 0 25 17" fill="none" xmlns="http://www.w3.org/2000/svg">
<path d="M10.629 17V16.54C11.135 16.5093 11.5107 16.448 11.756 16.356C12.0167 16.264 12.1854 16.08 12.262 15.804C12.354 15.528 12.4 15.114 12.4 14.562V3.154C12.4 2.58667 12.354 2.17267 12.262 1.912C12.1854 1.636 12.0167 1.452 11.756 1.36C11.5107 1.25267 11.135 1.19133 10.629 1.176V0.716C11.043 0.731333 11.5567 0.746666 12.17 0.761999C12.7834 0.777332 13.3967 0.784999 14.01 0.784999C14.6847 0.784999 15.3134 0.777332 15.896 0.761999C16.494 0.746666 16.9694 0.731333 17.322 0.716V1.176C16.8314 1.19133 16.4557 1.25267 16.195 1.36C15.9497 1.452 15.781 1.636 15.689 1.912C15.597 2.17267 15.551 2.58667 15.551 3.154V14.562C15.551 15.114 15.597 15.528 15.689 15.804C15.781 16.08 15.9497 16.264 16.195 16.356C16.4557 16.448 16.8314 16.5093 17.322 16.54V17C16.9694 16.9693 16.494 16.954 15.896 16.954C15.3134 16.9387 14.6847 16.931 14.01 16.931C13.3967 16.931 12.7834 16.9387 12.17 16.954C11.5567 16.954 11.043 16.9693 10.629 17ZM0.923032 17V16.54C1.42903 16.5093 1.8047 16.448 2.05003 16.356C2.3107 16.264 2.47937 16.08 2.55603 15.804C2.64803 15.528 2.69403 15.114 2.69403 14.562V3.154C2.69403 2.58667 2.64803 2.17267 2.55603 1.912C2.47937 1.636 2.3107 1.452 2.05003 1.36C1.8047 1.25267 1.42903 1.19133 0.923032 1.176V0.716C1.30637 0.731333 1.79703 0.746666 2.39503 0.761999C2.99303 0.777332 3.63703 0.784999 4.32703 0.784999C4.94037 0.784999 5.54603 0.777332 6.14403 0.761999C6.74203 0.746666 7.2327 0.731333 7.61603 0.716V1.176C7.12537 1.19133 6.7497 1.25267 6.48903 1.36C6.2437 1.452 6.07503 1.636 5.98303 1.912C5.89103 2.17267 5.84503 2.58667 5.84503 3.154V14.562C5.84503 15.114 5.89103 15.528 5.98303 15.804C6.07503 16.08 6.2437 16.264 6.48903 16.356C6.7497 16.448 7.12537 16.5093 7.61603 16.54V17C7.2327 16.9693 6.74203 16.954 6.14403 16.954C5.54603 16.9387 4.94037 16.931 4.32703 16.931C3.63703 16.931 2.99303 16.9387 2.39503 16.954C1.79703 16.954 1.30637 16.9693 0.923032 17ZM4.58003 9.042V8.582H13.665V9.042H4.58003ZM23.0901 7.496V15.218C23.0901 15.77 23.1981 16.142 23.4141 16.334C23.6301 16.526 24.0021 16.622 24.5301 16.622V17C24.2901 16.988 23.9361 16.976 23.4681 16.964C23.0121 16.94 22.5381 16.928 22.0461 16.928C21.4461 16.928 20.8701 16.94 20.3181 16.964C19.7781 16.976 19.3581 16.988 19.0581 17V16.622C19.6101 16.622 20.0421 16.526 20.3541 16.334C20.6661 16.13 20.8221 15.734 20.8221 15.146V10.754C20.8221 10.178 20.7681 9.752 20.6601 9.476C20.5521 9.2 20.3601 9.02 20.0841 8.936C19.8081 8.852 19.4301 8.81 18.9501 8.81V8.414C19.9221 8.39 20.7261 8.312 21.3621 8.18C22.0101 8.048 22.5861 7.82 23.0901 7.496Z" fill="white"/>
</svg>
