<svg width="21" height="20" viewBox="0 0 21 20" fill="none" xmlns="http://www.w3.org/2000/svg">
<path d="M14.8846 5.5932C15.0454 5.77892 15.2782 5.88547 15.5242 5.88547C15.7701 5.88547 16.003 5.77892 16.1644 5.59261L17.3965 4.16642C17.6508 3.87178 17.618 3.42713 17.3238 3.17356C17.0291 2.9188 16.5848 2.95154 16.3299 3.24618L15.5248 4.17832L14.7196 3.24618C14.4654 2.95154 14.0199 2.9188 13.7257 3.17356C13.4309 3.42773 13.3988 3.87237 13.6531 4.16642L14.8846 5.5932Z" fill="white"/>
<path d="M2.62193 20H19.076C20.0277 20 20.8542 19.2143 20.8542 18.2631V1.48929C20.8542 0.6875 20.1479 0 19.3458 0H2.35156C1.5494 0 0.84491 0.6875 0.84491 1.48929V18.2631C0.84491 19.2143 1.67029 20 2.62193 20ZM2.35156 1.42857H19.3458C19.3696 1.42857 19.3851 7.38095 19.3833 7.38095H2.31464C2.31226 7.38095 2.32774 1.42857 2.35156 1.42857ZM2.27415 8.80952H19.425V18.2631C19.425 18.4363 19.2487 18.5714 19.076 18.5714H2.62193C2.44923 18.5714 2.27415 18.4363 2.27415 18.2631V8.80952Z" fill="white"/>
<path d="M5.21322 12.7914H16.3452C16.7341 12.7914 17.0497 12.4274 17.0497 11.9914C17.0497 11.5554 16.7341 11.1914 16.3452 11.1914H5.21322C4.82376 11.1914 4.50873 11.5554 4.50873 11.9914C4.50873 12.4274 4.82435 12.7914 5.21322 12.7914Z" fill="white"/>
<path d="M5.21304 16.3617H12.6814C13.0709 16.3617 13.3859 15.9977 13.3859 15.5617C13.3859 15.1257 13.0703 14.7617 12.6814 14.7617H5.21304C4.82357 14.7617 4.50854 15.1257 4.50854 15.5617C4.50854 15.9977 4.82417 16.3617 5.21304 16.3617Z" fill="white"/>
</svg>
