<svg width="20" height="22" viewBox="0 0 20 22" fill="none" xmlns="http://www.w3.org/2000/svg">
<path d="M1.41039 5.5549C1.03419 5.5549 0.729477 5.87079 0.729477 6.26079V20.2937C0.729477 20.6837 1.03419 20.9996 1.41039 20.9996H14.947C15.3232 20.9996 15.6279 20.6837 15.6279 20.2937V16.4443H19.0574C19.4336 16.4443 19.7383 16.1284 19.7383 15.7384V1.70549C19.7383 1.31549 19.4336 0.999609 19.0574 0.999609H5.52084C5.14464 0.999609 4.83993 1.31549 4.83993 1.70549V5.5549H1.41039ZM18.3765 15.0325H6.20176V2.41137H18.3765V15.0325ZM2.0913 6.96667H4.83993V15.7384C4.83993 16.1284 5.14464 16.4443 5.52084 16.4443H14.266V19.5878H2.0913V6.96667Z" fill="white"/>
<path fill-rule="evenodd" clip-rule="evenodd" d="M4.68986 1.70549C4.68986 1.23785 5.05664 0.849609 5.52084 0.849609H19.0574C19.5216 0.849609 19.8884 1.23785 19.8884 1.70549V15.7384C19.8884 16.2061 19.5216 16.5943 19.0574 16.5943H15.7779V20.2937C15.7779 20.7614 15.4112 21.1496 14.947 21.1496H1.41039C0.946191 21.1496 0.579407 20.7614 0.579407 20.2937V6.26079C0.579407 5.79315 0.946192 5.4049 1.41039 5.4049H4.68986V1.70549ZM5.52084 1.14961C5.23263 1.14961 4.99 1.39313 4.99 1.70549V5.7049H1.41039C1.12218 5.7049 0.879546 5.94842 0.879546 6.26079V20.2937C0.879546 20.6061 1.12218 20.8496 1.41039 20.8496H14.947C15.2352 20.8496 15.4778 20.6061 15.4778 20.2937V16.2943H19.0574C19.3456 16.2943 19.5883 16.0508 19.5883 15.7384V1.70549C19.5883 1.39313 19.3456 1.14961 19.0574 1.14961H5.52084ZM6.05169 2.26137H18.5266V15.1825H6.05169V2.26137ZM6.35183 2.56137V14.8826H18.2264V2.56137H6.35183ZM1.94123 6.81667H4.99V15.7384C4.99 16.0508 5.23263 16.2943 5.52084 16.2943H14.4161V19.7378H1.94123V6.81667ZM2.24137 7.11667V19.4378H14.116V16.5943H5.52084C5.05664 16.5943 4.68986 16.2061 4.68986 15.7384V7.11667H2.24137Z" fill="white"/>
</svg>
