<svg width="23" height="18" viewBox="0 0 23 18" fill="none" xmlns="http://www.w3.org/2000/svg">
<g clip-path="url(#clip0_1_287)">
<path d="M21.5038 9.93665C21.9799 9.93665 22.3664 9.57231 22.3664 9.12217V6.1086C22.3664 4.53665 21.0121 3.25792 19.3473 3.25792H18.916V2.85068C18.916 1.27873 17.5617 0 15.897 0H3.26005C1.61883 0 0.284119 1.26027 0.284119 2.80995V11.8914C0.284119 13.4633 1.63838 14.7421 3.30318 14.7421H3.73447V15.1493C3.73447 16.7213 5.08873 18 6.75353 18H19.3542C21.015 18 22.3664 16.7245 22.3664 15.1558L22.3658 13.295C22.3658 13.1023 22.2933 12.9149 22.1605 12.7683L18.0776 8.22842C17.9131 8.04543 17.6739 7.94063 17.4174 7.94118C17.1632 7.94172 16.9229 8.04815 16.7595 8.23167L12.8428 12.6358L11.0026 10.5187C10.8405 10.3325 10.5995 10.2239 10.3448 10.2212C10.0883 10.2195 9.84619 10.3233 9.68057 10.5062L5.45964 15.1672C5.45964 15.1613 5.45964 15.1553 5.45964 15.1493V6.06787C5.45964 5.41683 6.0209 4.88688 6.7104 4.88688H19.3473C20.061 4.88688 20.6412 5.43475 20.6412 6.1086V9.12217C20.6412 9.57231 21.0271 9.93665 21.5038 9.93665ZM10.3223 12.3046L12.1689 14.4282C12.3316 14.6156 12.5743 14.7247 12.8307 14.7258C13.0872 14.7258 13.331 14.6205 13.4961 14.4353L17.4243 10.0186L20.6412 13.5948L20.6418 15.1569C20.6418 15.827 20.0644 16.3716 19.3548 16.3716H6.75353C6.71672 16.3716 6.67992 16.37 6.64369 16.3672L10.3223 12.3046ZM3.73447 6.06787V13.1131H3.30318C2.58953 13.1131 2.00929 12.5652 2.00929 11.8914V2.80995C2.00929 2.15891 2.57055 1.62896 3.26005 1.62896H15.897C16.6106 1.62896 17.1908 2.17683 17.1908 2.85068V3.25792H6.7104C5.06918 3.25792 3.73447 4.51819 3.73447 6.06787ZM9.08251 6.63801C9.6777 6.63801 10.1607 7.09412 10.1607 7.65611C10.1607 8.2181 9.6777 8.67421 9.08251 8.67421C8.48733 8.67421 8.00428 8.2181 8.00428 7.65611C8.00428 7.09412 8.48733 6.63801 9.08251 6.63801Z" fill="white"/>
</g>
<defs>
<clipPath id="clip0_1_287">
<rect width="22.0822" height="18" fill="white" transform="translate(0.284119)"/>
</clipPath>
</defs>
</svg>
