<svg width="23" height="24" viewBox="0 0 23 24" fill="none" xmlns="http://www.w3.org/2000/svg">
<g clip-path="url(#clip0_1_299)">
<path d="M11.5652 12.2757C11.1149 12.2757 10.6646 12.1526 10.2553 11.9174L3.59304 7.98694C2.98925 7.6286 2.6106 6.92313 2.6106 6.13927C2.6106 5.35542 2.98925 4.64995 3.59304 4.29161L10.2553 0.361134C11.074 -0.120378 12.0564 -0.120378 12.8649 0.361134L19.5271 4.29161C20.1309 4.64995 20.5096 5.35542 20.5096 6.13927C20.5096 6.92313 20.1309 7.6286 19.5271 7.98694L12.8649 11.9174C12.4658 12.1638 12.0155 12.2757 11.5652 12.2757ZM11.5652 1.67129C11.3708 1.67129 11.1661 1.72728 10.9819 1.83926L4.32988 5.75854C4.15591 5.85933 4.14567 6.07209 4.14567 6.13927C4.14567 6.20646 4.15591 6.41922 4.32988 6.50881L10.9921 10.4393C11.3605 10.652 11.7801 10.652 12.1485 10.4393L18.8108 6.50881C18.9745 6.40802 18.995 6.19526 18.995 6.13927C18.995 6.07209 18.9847 5.85933 18.8108 5.76974L12.1485 1.83926C11.9643 1.72728 11.7597 1.67129 11.5652 1.67129Z" fill="white"/>
<path d="M9.29258 23.9999C9.00603 23.9999 8.70925 23.9216 8.44317 23.776L2.24146 20.3942C1.20784 19.8231 0.56311 18.6809 0.56311 17.4155V11.0103C0.56311 10.2825 0.900827 9.62178 1.46369 9.24105C2.03678 8.86032 2.72245 8.82672 3.31601 9.15146L9.51772 12.5332C10.5513 13.1043 11.1961 14.2353 11.1961 15.5119V21.9171C11.1961 22.645 10.8584 23.3057 10.2955 23.6864C9.98848 23.8992 9.64053 23.9999 9.29258 23.9999ZM2.4666 10.6072C2.38473 10.6072 2.3131 10.6408 2.27216 10.6632C2.21076 10.708 2.09819 10.8088 2.09819 11.0103V17.4155C2.09819 18.0426 2.41544 18.6137 2.92713 18.8937L9.1186 22.2867C9.28234 22.3762 9.41538 22.309 9.47678 22.2755C9.53819 22.2307 9.65076 22.1299 9.65076 21.9283V15.5231C9.65076 14.896 9.33351 14.3249 8.82182 14.045L2.63035 10.652C2.56894 10.6184 2.51777 10.6072 2.4666 10.6072Z" fill="white"/>
<path d="M13.8369 23.9994C13.489 23.9994 13.141 23.8986 12.834 23.6859C12.2711 23.3051 11.9334 22.6445 11.9334 21.9166V15.5114C11.9334 14.246 12.5781 13.1038 13.6118 12.5327L19.8032 9.13974C20.3968 8.815 21.0927 8.8486 21.6556 9.22933C22.2184 9.61006 22.5561 10.2707 22.5561 10.9986V17.4038C22.5561 18.6692 21.9114 19.8114 20.8778 20.3825L14.6863 23.7755C14.4202 23.9322 14.1235 23.9994 13.8369 23.9994ZM20.6629 10.6067C20.6117 10.6067 20.5605 10.6179 20.4991 10.6515L14.3077 14.0444C13.796 14.3244 13.4787 14.8843 13.4787 15.5226V21.9278C13.4787 22.1294 13.5913 22.2301 13.6527 22.2749C13.7141 22.3197 13.8471 22.3757 14.0109 22.2861L20.2024 18.8932C20.714 18.6132 21.0313 18.0421 21.0313 17.415V11.0098C21.0313 10.8082 20.9187 10.7075 20.8573 10.6627C20.8164 10.6403 20.7447 10.6067 20.6629 10.6067Z" fill="white"/>
</g>
<defs>
<clipPath id="clip0_1_299">
<rect width="21.9925" height="24" fill="white" transform="translate(0.56311)"/>
</clipPath>
</defs>
</svg>
