<svg width="9" height="20" viewBox="0 0 9 20" fill="none" xmlns="http://www.w3.org/2000/svg">
<g clip-path="url(#clip0_1_313)">
<path d="M4.29529 9C3.06552 9 2.06476 7.87833 2.06476 6.5C2.06476 5.12167 3.06552 4 4.29529 4C5.52505 4 6.52582 5.12167 6.52582 6.5C6.52582 7.0525 6.92508 7.5 7.41803 7.5C7.91098 7.5 8.31024 7.0525 8.31024 6.5C8.31024 4.3625 6.97341 2.57 5.1875 2.11333V1C5.1875 0.4475 4.78823 0 4.29529 0C3.80234 0 3.40308 0.4475 3.40308 1V2.11333C1.61717 2.57 0.280334 4.3625 0.280334 6.5C0.280334 8.98167 2.08112 11 4.29529 11C5.52505 11 6.52582 12.1217 6.52582 13.5C6.52582 14.8783 5.52505 16 4.29529 16C3.06552 16 2.06476 14.8783 2.06476 13.5C2.06476 12.9475 1.66549 12.5 1.17255 12.5C0.679599 12.5 0.280334 12.9475 0.280334 13.5C0.280334 15.6375 1.61717 17.43 3.40308 17.8867V19C3.40308 19.5525 3.80234 20 4.29529 20C4.78823 20 5.1875 19.5525 5.1875 19V17.8867C6.97341 17.43 8.31024 15.6375 8.31024 13.5C8.31024 11.0183 6.50946 9 4.29529 9Z" fill="white"/>
</g>
<defs>
<clipPath id="clip0_1_313">
<rect width="8.02991" height="20" fill="white" transform="translate(0.280334)"/>
</clipPath>
</defs>
</svg>
