<svg width="25" height="18" viewBox="0 0 25 18" fill="none" xmlns="http://www.w3.org/2000/svg">
<g clip-path="url(#clip0_1_332)">
<path d="M4.81983 11.7549C4.29426 13.1642 3.4632 14.5587 2.35068 15.9015C1.99652 16.3287 1.95183 16.9388 2.23863 17.4192C2.46007 17.7884 2.83157 17.9988 3.22576 17.9988C3.33648 17.9988 3.44986 17.9826 3.56125 17.9478C5.91901 17.2159 11.4196 14.6161 11.5676 6.3059C11.625 3.09675 9.41531 0.340384 6.53863 0.0300272C4.95323 -0.138614 3.36716 0.408408 2.19128 1.53717C1.01473 2.66735 0.339081 4.28078 0.339081 5.96437C0.339081 8.77317 2.21595 11.2291 4.81983 11.7549ZM3.26444 2.79915C4.01212 2.08136 4.95323 1.69873 5.95103 1.69873C6.09243 1.69873 6.23449 1.70652 6.37723 1.72211C8.43151 1.94319 10.0089 3.94279 9.9669 6.27331C9.86485 12.0234 6.93415 14.6126 4.50702 15.7704C5.27538 14.6671 5.87833 13.532 6.30786 12.3812C6.47527 11.9334 6.44726 11.4325 6.23182 11.0073C6.00639 10.5616 5.6042 10.2449 5.12931 10.1393C3.28112 9.72833 1.93983 7.97247 1.93983 5.96437C1.93983 4.7612 2.42272 3.60693 3.26444 2.79915Z" fill="white"/>
<path d="M15.0219 17.42C15.2434 17.7892 15.6155 17.9996 16.0091 17.9996C16.1198 17.9996 16.2325 17.9833 16.3445 17.9486C18.703 17.2167 24.2029 14.6169 24.3509 6.30669C24.407 3.09754 22.1986 0.341173 19.3213 0.030816C17.7339 -0.14066 16.1505 0.409196 14.9746 1.53796C13.7974 2.66814 13.1224 4.28157 13.1224 5.96515C13.1224 8.77396 14.9993 11.2299 17.6025 11.7557C17.0762 13.1664 16.2458 14.5609 15.1333 15.903C14.7785 16.3302 14.7338 16.9403 15.0219 17.42ZM19.0898 12.3827C19.2572 11.9349 19.2299 11.434 19.0145 11.0088C18.7883 10.5624 18.3868 10.2464 17.9113 10.1401C16.0631 9.72912 14.7218 7.97326 14.7218 5.96515C14.7218 4.76128 15.2047 3.60772 16.0464 2.79994C16.7934 2.08215 17.7345 1.69952 18.733 1.69952C18.8737 1.69952 19.0158 1.70731 19.1592 1.7229C21.2135 1.94398 22.7909 3.94358 22.7489 6.27409C22.6475 12.0249 19.7161 14.6133 17.289 15.7712C18.0573 14.6686 18.6603 13.5335 19.0898 12.3827Z" fill="white"/>
</g>
<defs>
<clipPath id="clip0_1_332">
<rect width="24.0112" height="18" fill="white" transform="translate(0.339081)"/>
</clipPath>
</defs>
</svg>
