<svg width="18" height="24" viewBox="0 0 18 24" fill="none" xmlns="http://www.w3.org/2000/svg">
<g clip-path="url(#clip0_1_293)">
<path d="M17.1455 7.77L9.3595 0.208125C9.22261 0.075 9.03706 0.000625 8.84307 0C8.84242 0 8.84178 0 8.84178 0C8.64844 0 8.46289 0.07375 8.326 0.20625L0.507554 7.7375C0.370662 7.86938 0.293457 8.04812 0.293457 8.23438V15.7656C0.293457 15.9519 0.370013 16.1306 0.507554 16.2625L8.32535 23.7938C8.46224 23.9256 8.64779 24 8.84113 24C9.03446 24 9.22001 23.9256 9.35691 23.7938L17.1429 16.2938C17.2798 16.1619 17.357 15.9831 17.357 15.7969V8.26562C17.357 8.07937 17.2811 7.90187 17.1455 7.77ZM8.83918 1.69938L15.5969 8.26313L8.84113 14.7712L2.08084 8.25875C2.07241 8.25062 2.06333 8.24375 2.05424 8.23563L8.83918 1.69938ZM1.75321 9.93188L8.11125 16.0569V21.5994L1.75321 15.4744V9.93188ZM9.571 21.5994V16.0569L15.8973 9.9625V15.505L9.571 21.5994Z" fill="white"/>
</g>
<defs>
<clipPath id="clip0_1_293">
<rect width="17.0636" height="24" fill="white" transform="translate(0.293457)"/>
</clipPath>
</defs>
</svg>
