<svg width="31" height="24" viewBox="0 0 31 24" fill="none" xmlns="http://www.w3.org/2000/svg">
<g clip-path="url(#clip0_1_278)">
<path d="M27.4564 15.6003C27.2769 15.6003 27.0965 15.5508 26.9358 15.4488C26.5029 15.1728 26.386 14.6148 26.6746 14.2008L28.21 12.0003L26.6754 9.79983C26.3884 9.38583 26.5037 8.82783 26.9365 8.55183C27.3694 8.27583 27.9544 8.38758 28.2414 8.80158L30.1234 11.5016C30.3343 11.8038 30.3343 12.1976 30.1234 12.4998L28.2414 15.1998C28.0587 15.4601 27.7607 15.6003 27.4564 15.6003Z" fill="white"/>
<path d="M2.99449 15.6003C2.69102 15.6003 2.39225 15.4601 2.21032 15.1998L0.328311 12.4998C0.117369 12.1976 0.117369 11.8038 0.328311 11.5016L2.21032 8.80158C2.4989 8.38758 3.08232 8.27583 3.51518 8.55183C3.94804 8.82783 4.06488 9.38583 3.77631 9.79983L2.2409 12.0003L3.77553 14.2008C4.06253 14.6148 3.94726 15.1728 3.5144 15.4488C3.35443 15.5508 3.17407 15.6003 2.99449 15.6003Z" fill="white"/>
<path d="M20.5585 24H9.89382C7.99063 24 6.44347 22.5203 6.44347 20.7V3.3C6.44347 1.47975 7.99063 0 9.89382 0H20.5585C22.4617 0 24.0089 1.47975 24.0089 3.3V20.7C24.0089 22.5203 22.4617 24 20.5585 24ZM9.89382 1.8C9.02966 1.8 8.32548 2.4735 8.32548 3.3V20.7C8.32548 21.5265 9.02966 22.2 9.89382 22.2H20.5585C21.4227 22.2 22.1269 21.5265 22.1269 20.7V3.3C22.1269 2.4735 21.4227 1.8 20.5585 1.8H9.89382Z" fill="white"/>
</g>
<defs>
<clipPath id="clip0_1_278">
<rect width="30.1121" height="24" fill="white" transform="translate(0.170105)"/>
</clipPath>
</defs>
</svg>
