<svg width="23" height="18" viewBox="0 0 23 18" fill="none" xmlns="http://www.w3.org/2000/svg">
<path d="M3.8606 0C2.13253 0 0.714966 1.46903 0.714966 3.26882V8.18058C0.714966 9.97969 2.13253 11.4555 3.8606 11.4555V13.9141C3.86322 14.2435 4.05515 14.5389 4.34797 14.6643C4.64013 14.7898 4.97683 14.7203 5.20086 14.4877L8.11329 11.4555H13.2949C15.0229 11.4555 16.4346 9.97969 16.4346 8.18058V3.26882C16.4353 1.46903 15.0236 0 13.2955 0H3.8606ZM3.8606 1.63816H13.2949C14.1792 1.63816 14.8683 2.34744 14.8683 3.26882V8.18058C14.8683 9.10128 14.1792 9.81738 13.2949 9.81738H7.78969C7.58203 9.81806 7.38355 9.90535 7.23681 10.0581L5.43276 11.9377V10.6392C5.43407 10.187 5.08426 9.81942 4.64995 9.81738H3.8606C2.97626 9.81738 2.28844 9.10128 2.28844 8.18058V3.26882C2.28844 2.34744 2.97626 1.63816 3.8606 1.63816ZM17.224 3.26882V4.90562H19.5809C20.4652 4.90562 21.1531 5.62308 21.1531 6.54378V11.4555C21.1531 12.3762 20.4652 13.0923 19.5809 13.0923H18.7961C18.5865 13.091 18.3854 13.1776 18.2373 13.3317C18.0893 13.4858 18.0061 13.6959 18.0068 13.9141V15.2072L16.2086 13.3338C16.0612 13.1789 15.8608 13.0923 15.6511 13.0923H10.1499C9.55706 13.0923 9.0579 12.767 8.78932 12.2773H8.43755L7.51915 13.2335C8.08185 14.1303 9.05004 14.7298 10.1492 14.7298H15.3249L18.2387 17.762C18.4633 17.9945 18.8007 18.0641 19.0942 17.9373C19.387 17.8104 19.5783 17.5137 19.5789 17.183V14.7291C21.307 14.7291 22.7232 13.2547 22.7232 11.4555V6.54378C22.7232 4.74399 21.307 3.26882 19.5789 3.26882H17.224Z" fill="white"/>
</svg>
