<svg width="19" height="20" viewBox="0 0 19 20" fill="none" xmlns="http://www.w3.org/2000/svg">
<g clip-path="url(#clip0_1_319)">
<path d="M14.8416 12.7276C13.6902 12.7305 12.6098 13.2878 11.9348 14.2275L7.41025 11.1885C7.69558 10.4226 7.69558 9.57838 7.41025 8.81251L11.9348 5.77348C12.9842 7.20635 14.911 7.6586 16.4808 6.8399C18.0507 6.02119 18.7967 4.17471 18.2413 2.48446C17.6858 0.793647 15.9931 -0.239249 14.249 0.0476665C12.5049 0.334582 11.226 1.85609 11.2328 3.63724C11.2384 3.76961 11.252 3.90199 11.2723 4.03267L6.4088 7.29953C5.34984 6.33765 3.82849 6.09391 2.52536 6.67797C1.2228 7.2626 0.383179 8.56423 0.383179 10.0005C0.383179 11.4368 1.2228 12.739 2.52536 13.3225C3.82792 13.9065 5.34984 13.6628 6.4088 12.7009L11.2723 15.9678C11.252 16.0985 11.2384 16.2308 11.2328 16.3632C11.2328 17.8342 12.1119 19.1597 13.4607 19.7227C14.8089 20.2857 16.3613 19.9744 17.3938 18.9341C18.4262 17.8944 18.7347 16.3303 18.1764 14.9713C17.6182 13.6122 16.301 12.7276 14.8416 12.7276ZM14.8416 1.81916C15.5713 1.81916 16.2293 2.26231 16.5085 2.94125C16.7876 3.62076 16.6336 4.40253 16.1177 4.92296C15.6017 5.44282 14.8253 5.59849 14.1509 5.31669C13.4765 5.03545 13.0372 4.37242 13.0372 3.63724C13.0372 2.63332 13.8447 1.81916 14.8416 1.81916ZM4.01513 11.8186C3.28547 11.8186 2.62742 11.3754 2.3483 10.6965C2.06918 10.017 2.22312 9.23521 2.73907 8.71479C3.25502 8.19493 4.03148 8.03926 4.70588 8.32106C5.38029 8.60229 5.81955 9.26533 5.81955 10.0005C5.81955 11.005 5.01151 11.8186 4.01513 11.8186ZM14.8416 18.1819C14.112 18.1819 13.4539 17.7387 13.1748 17.0598C12.8957 16.3803 13.0496 15.5985 13.5656 15.0781C14.0815 14.5576 14.858 14.4025 15.5318 14.6843C16.2062 14.9656 16.6455 15.6286 16.6455 16.3638C16.646 17.3683 15.838 18.1819 14.8416 18.1819Z" fill="white"/>
</g>
<defs>
<clipPath id="clip0_1_319">
<rect width="18.0673" height="20" fill="white" transform="translate(0.383179)"/>
</clipPath>
</defs>
</svg>
