<svg width="33" height="18" viewBox="0 0 33 18" fill="none" xmlns="http://www.w3.org/2000/svg">
<g clip-path="url(#clip0_1_259)">
<path d="M23.8698 0H9.83262C4.87001 0 0.847717 4.02905 0.847717 9C0.847717 13.9703 4.87001 18 9.83262 18H23.8777C28.8373 17.9939 32.8565 13.9679 32.8626 9C32.8626 4.03821 28.8239 0 23.8698 0ZM23.8698 16.4735H9.83262C5.71215 16.4735 2.37163 13.1274 2.37163 9C2.37163 4.87261 5.71215 1.52708 9.83262 1.52708H23.8777C27.9982 1.52952 31.3369 4.87688 31.3351 9.00428C31.3326 13.1311 27.9909 16.4754 23.8698 16.4735Z" fill="white"/>
<path d="M9.83255 3.27539C6.67618 3.27539 4.11682 5.83844 4.11682 9.00072C4.11682 12.163 6.67618 14.726 9.83255 14.726C12.9889 14.726 15.5483 12.163 15.5483 9.00072C15.544 5.84027 12.9877 3.27906 9.83255 3.27539Z" fill="white"/>
</g>
<defs>
<clipPath id="clip0_1_259">
<rect width="32.0149" height="18" fill="white" transform="translate(0.847717)"/>
</clipPath>
</defs>
</svg>
