<svg width="18" height="22" viewBox="0 0 18 22" fill="none" xmlns="http://www.w3.org/2000/svg">
<g clip-path="url(#clip0_1_347)">
<path d="M8.59023 10.1537C10.6538 10.1537 12.5147 8.91666 13.304 7.01942C14.094 5.12217 13.6574 2.93865 12.1978 1.48687C10.7388 0.0350933 8.54373 -0.399267 6.63763 0.386777C4.73091 1.17221 3.48767 3.02379 3.48767 5.07713C3.49015 7.8795 5.77325 10.1513 8.59023 10.1537ZM8.59023 1.69233C9.96617 1.69233 11.2063 2.51663 11.7328 3.78145C12.2592 5.04628 11.9684 6.50176 10.9955 7.46982C10.0226 8.43788 8.55923 8.72724 7.2887 8.20342C6.01756 7.6796 5.18914 6.44562 5.18914 5.07652C5.18852 3.20765 6.71142 1.69233 8.59023 1.69233Z" fill="white"/>
<path d="M11.0411 11.8457H6.1382C2.79664 11.85 0.0894138 14.5444 0.0856934 17.8688C0.0881736 20.1491 1.94529 21.997 4.23707 21.9995H12.941C15.2334 21.997 17.0911 20.1485 17.0936 17.8681C17.0899 14.5438 14.382 11.8494 11.0411 11.8457ZM12.941 20.3071H4.23707C2.88407 20.3052 1.78779 19.2144 1.78655 17.8675C1.78903 15.4773 3.73543 13.54 6.1382 13.5375H11.0417C13.4439 13.5406 15.3903 15.4779 15.3934 17.8681C15.3909 19.215 14.294 20.3059 12.941 20.3071Z" fill="white"/>
</g>
<defs>
<clipPath id="clip0_1_347">
<rect width="17.0079" height="22" fill="white" transform="translate(0.0856934)"/>
</clipPath>
</defs>
</svg>
