<svg width="25" height="16" viewBox="0 0 25 16" fill="none" xmlns="http://www.w3.org/2000/svg">
<path d="M23.278 1.68267C22.5384 1.284 21.6373 1.33067 20.9437 1.80467L16.6111 4.71067V2.4C16.6098 1.07533 15.5353 0.00133333 14.2101 0H3.00515C1.6799 0.00133333 0.605429 1.07533 0.604095 2.4V13.6C0.605429 14.9247 1.6799 15.9987 3.00515 16H14.2101C15.5353 15.9987 16.6098 14.9247 16.6111 13.6V11.2893L20.9443 14.1953C21.6373 14.6727 22.539 14.7193 23.278 14.3173C24.1184 13.8507 24.6326 12.958 24.6146 11.9973V4.00333C24.6326 3.042 24.1191 2.14933 23.278 1.68267ZM15.0104 13.6C15.0097 14.042 14.6516 14.3993 14.2101 14.4H3.00515C2.56295 14.3993 2.20546 14.0413 2.2048 13.6V2.4C2.20546 1.958 2.56362 1.60067 3.00515 1.6H14.2101C14.6522 1.60067 15.0097 1.95867 15.0104 2.4V13.6ZM23.0139 11.9967C23.0319 12.3667 22.8432 12.7167 22.5244 12.906C22.3069 13.0287 22.0381 13.0133 21.8361 12.8667L16.6111 9.36267V6.63733L21.8354 3.13333C22.0388 2.98933 22.3063 2.974 22.525 3.094C22.8438 3.28333 23.0319 3.63267 23.0146 4.00267V11.9967H23.0139Z" fill="white"/>
</svg>
