<svg xmlns="http://www.w3.org/2000/svg" width="1920" height="570" viewBox="0 0 1920 570" fill="none">
<mask id="mask0_1_29" style="mask-type:alpha" maskUnits="userSpaceOnUse" x="0" y="0" width="1920" height="570"><script xmlns=""/>
<rect width="1920" height="570" fill="#02060D"/>
</mask>
<g mask="url(#mask0_1_29)">
<path opacity="0.02" d="M2636.8 -1081C2591.89 -1081.15 2547.08 -1076.91 2503 -1068.35C1852.84 -940.006 1823.86 42.804 1179.7 321.674C1101.76 355.414 1019.93 369.514 935.23 369.514C643.37 369.514 317.54 202.024 0 93.2939V574.634H3704.91V-739.496C3347.85 -856.436 2977.19 -1081 2636.8 -1081Z" fill="white"/>
<path opacity="0.02" d="M3554.58 -1289C3544.34 -1289 3534.09 -1288.83 3523.83 -1288.48C2577.73 -1256.62 2311.46 122.18 1339.24 367.52C1273.82 383.937 1206.62 392.16 1139.17 392C766.17 392 384.54 154.64 0 -70.9V575.1H3704.91V-1277.27C3655.17 -1284.98 3604.91 -1288.9 3554.58 -1289Z" fill="white"/>
</g>
</svg>